# xmcd
#
# Track frame offsets:
#	150
#	13200
#	47250
#	74787
#	108837
#	130662
#	156512
#	177787
#	192537
#	217050
#
# Disc length: 3178 seconds
#
# Revision: 3
# Processed by: cddbd v1.5.2PL0 Copyright (c) Steve Scherf et al.
# Submitted via: EZCDAudioConverter 8.0.2.1
#
DISCID=920c680a
DTITLE=Various Artist - Mơ Khúc Tương Phùng [CD1)
DYEAR=1994
DGENRE=Vietnam
TTITLE0=Ngọc Ánh - Dừng bước giang hồ
TTITLE1=Lê Tuấn - Tiếng còi trong sương đêm
TTITLE2=Khắc Dũng - Ai về sông Tương
TTITLE3=Cẩm Vân - Đêm đông
TTITLE4=Hồng Hạnh - Chờ một kiếp mai
TTITLE5=Thu Hà - Chiếc lá cuối cùng
TTITLE6=Bảo Yến - Làng tôi
TTITLE7=Thanh Long Bass - Mộng chiều xưa
TTITLE8=Thanh Long - Cô hàng cà phê
TTITLE9=Phương Thanh - Khúc ly ca
EXTD=
EXTT0=
EXTT1=
EXTT2=
EXTT3=
EXTT4=
EXTT5=
EXTT6=
EXTT7=
EXTT8=
EXTT9=
PLAYORDER=
